<?xml version="1.0" encoding="UTF-8" standalone="no"?>
<!-- Created with Inkscape (http://www.inkscape.org/) -->

<svg
   version="1.1"
   id="svg132"
   width="207.97333"
   height="102.13598"
   viewBox="0 0 207.97333 102.13598"
   sodipodi:docname="5331537.ai"
   xmlns:inkscape="http://www.inkscape.org/namespaces/inkscape"
   xmlns:sodipodi="http://sodipodi.sourceforge.net/DTD/sodipodi-0.dtd"
   xmlns="http://www.w3.org/2000/svg"
   xmlns:svg="http://www.w3.org/2000/svg">
  <defs
     id="defs136">
    <clipPath
       clipPathUnits="userSpaceOnUse"
       id="clipPath312">
      <path
         d="m 135.438,406.453 c -6.901,-6.091 -9.594,-14.421 -5.568,-22.775 v 0 l 27.815,24.553 c -2.962,2.615 -6.202,3.837 -9.524,3.837 v 0 c -4.242,0 -8.617,-1.991 -12.723,-5.615"
         id="path310" />
    </clipPath>
    <linearGradient
       x1="0"
       y1="0"
       x2="1"
       y2="0"
       gradientUnits="userSpaceOnUse"
       gradientTransform="matrix(7.9710574,-75.459457,-75.459457,-7.9710574,139.04347,435.36929)"
       spreadMethod="pad"
       id="linearGradient322">
      <stop
         style="stop-opacity:1;stop-color:#eb8b27"
         offset="0"
         id="stop318" />
      <stop
         style="stop-opacity:1;stop-color:#eb4527"
         offset="1"
         id="stop320" />
    </linearGradient>
    <clipPath
       clipPathUnits="userSpaceOnUse"
       id="clipPath332">
      <path
         d="m 118.874,421.839 c -6.958,-1.289 -11.554,-7.974 -10.264,-14.931 v 0 l 3.139,-16.941 c -0.088,9.718 4.263,19.433 13.302,27.413 v 0 c 4.045,3.57 8.252,6.227 12.536,7.925 v 0 z"
         id="path330" />
    </clipPath>
    <linearGradient
       x1="0"
       y1="0"
       x2="1"
       y2="0"
       gradientUnits="userSpaceOnUse"
       gradientTransform="matrix(7.9710774,-75.459648,-75.459648,-7.9710774,121.24274,433.48901)"
       spreadMethod="pad"
       id="linearGradient342">
      <stop
         style="stop-opacity:1;stop-color:#eb8b27"
         offset="0"
         id="stop338" />
      <stop
         style="stop-opacity:1;stop-color:#eb4527"
         offset="1"
         id="stop340" />
    </linearGradient>
    <clipPath
       clipPathUnits="userSpaceOnUse"
       id="clipPath352">
      <path
         d="m 168.008,430.941 -18.662,-3.457 c 10.299,-0.269 20.624,-6.293 29.897,-19.015 v 0 l -40.261,-35.537 c 6.469,-5.641 16.073,-5.35 25.066,2.589 v 0 c 4.705,4.152 9.306,11.376 9.557,16.994 v 0 l 14.702,-0.822 -5.369,28.984 c -1.142,6.168 -6.527,10.48 -12.582,10.48 v 0 c -0.774,0 -1.559,-0.07 -2.348,-0.216"
         id="path350" />
    </clipPath>
    <linearGradient
       x1="0"
       y1="0"
       x2="1"
       y2="0"
       gradientUnits="userSpaceOnUse"
       gradientTransform="matrix(7.9710455,-75.459343,-75.459343,-7.9710455,157.8308,437.35388)"
       spreadMethod="pad"
       id="linearGradient362">
      <stop
         style="stop-opacity:1;stop-color:#eb8b27"
         offset="0"
         id="stop358" />
      <stop
         style="stop-opacity:1;stop-color:#eb4527"
         offset="1"
         id="stop360" />
    </linearGradient>
    <clipPath
       clipPathUnits="userSpaceOnUse"
       id="clipPath372">
      <path
         d="m 174.08,363.725 c -0.71,-0.63 -1.43,-1.23 -2.15,-1.79 v 0 h 15.32 c 3.39,2.87 5.19,7.43 4.32,12.12 v 0 l -2.87,15.53 c -1.15,-9.75 -7.291,-19.39 -14.62,-25.86"
         id="path370" />
    </clipPath>
    <linearGradient
       x1="0"
       y1="0"
       x2="1"
       y2="0"
       gradientUnits="userSpaceOnUse"
       gradientTransform="matrix(-5.3703241,-29.805218,-29.805218,5.3703241,186.10211,389.79916)"
       spreadMethod="pad"
       id="linearGradient384">
      <stop
         style="stop-opacity:1;stop-color:#72ba0e"
         offset="0"
         id="stop378" />
      <stop
         style="stop-opacity:1;stop-color:#009eff"
         offset="0.989189"
         id="stop380" />
      <stop
         style="stop-opacity:1;stop-color:#009eff"
         offset="1"
         id="stop382" />
    </linearGradient>
    <clipPath
       clipPathUnits="userSpaceOnUse"
       id="clipPath394">
      <path
         d="m 116.94,361.935 h 8.81 c -1.47,1.29 -2.9,2.72 -4.28,4.28 v 0 c -3.48,3.94 -6.04,8.19 -7.65,12.59 v 0 z"
         id="path392" />
    </clipPath>
    <linearGradient
       x1="0"
       y1="0"
       x2="1"
       y2="0"
       gradientUnits="userSpaceOnUse"
       gradientTransform="matrix(2.8451703,-21.745226,-21.745226,-2.8451703,118.24138,382.16766)"
       spreadMethod="pad"
       id="linearGradient406">
      <stop
         style="stop-opacity:1;stop-color:#72ba0e"
         offset="0"
         id="stop400" />
      <stop
         style="stop-opacity:1;stop-color:#009eff"
         offset="0.989189"
         id="stop402" />
      <stop
         style="stop-opacity:1;stop-color:#009eff"
         offset="1"
         id="stop404" />
    </linearGradient>
    <clipPath
       clipPathUnits="userSpaceOnUse"
       id="clipPath416">
      <path
         d="m 56.46,380.135 c 0,-3.61 2.93,-6.541 6.54,-6.541 v 0 c 2.24,0 4.22,1.131 5.4,2.851 v 0 h 13.95 l 13.6,-21.89 h 112.801 c 2.029,0 3.689,1.65 3.689,3.69 v 0 c 0,2.039 -1.66,3.69 -3.689,3.69 v 0 H 100.05 l -13.6,21.9 H 68.4 c -1.18,1.71 -3.16,2.84 -5.4,2.84 v 0 c -3.61,0 -6.54,-2.92 -6.54,-6.54"
         id="path414" />
    </clipPath>
    <linearGradient
       x1="0"
       y1="0"
       x2="1"
       y2="0"
       gradientUnits="userSpaceOnUse"
       gradientTransform="matrix(0.9947912,-70.632751,-70.632751,-0.9947912,133.99821,401.25769)"
       spreadMethod="pad"
       id="linearGradient426">
      <stop
         style="stop-opacity:1;stop-color:#eb8b27"
         offset="0"
         id="stop422" />
      <stop
         style="stop-opacity:1;stop-color:#eb4527"
         offset="1"
         id="stop424" />
    </linearGradient>
  </defs>
  <sodipodi:namedview
     id="namedview134"
     pagecolor="#505050"
     bordercolor="#ffffff"
     borderopacity="1"
     inkscape:showpageshadow="0"
     inkscape:pageopacity="0"
     inkscape:pagecheckerboard="1"
     inkscape:deskcolor="#505050"
     showgrid="false" />
  <g
     id="g140"
     inkscape:groupmode="layer"
     inkscape:label="Page 1"
     transform="matrix(1.3333333,0,0,-1.3333333,-75.279998,574.87598)">
    <g
       id="g1897">
      <g
         id="g306">
        <g
           id="g308"
           clip-path="url(#clipPath312)">
          <g
             id="g314">
            <g
               id="g316">
              <path
                 d="m 135.438,406.453 c -6.901,-6.091 -9.594,-14.421 -5.568,-22.775 v 0 l 27.815,24.553 c -2.962,2.615 -6.202,3.837 -9.524,3.837 v 0 c -4.242,0 -8.617,-1.991 -12.723,-5.615"
                 style="fill:url(#linearGradient322);stroke:none"
                 id="path324" />
            </g>
          </g>
        </g>
      </g>
      <g
         id="g326">
        <g
           id="g328"
           clip-path="url(#clipPath332)">
          <g
             id="g334">
            <g
               id="g336">
              <path
                 d="m 118.874,421.839 c -6.958,-1.289 -11.554,-7.974 -10.264,-14.931 v 0 l 3.139,-16.941 c -0.088,9.718 4.263,19.433 13.302,27.413 v 0 c 4.045,3.57 8.252,6.227 12.536,7.925 v 0 z"
                 style="fill:url(#linearGradient342);stroke:none"
                 id="path344" />
            </g>
          </g>
        </g>
      </g>
      <g
         id="g346">
        <g
           id="g348"
           clip-path="url(#clipPath352)">
          <g
             id="g354">
            <g
               id="g356">
              <path
                 d="m 168.008,430.941 -18.662,-3.457 c 10.299,-0.269 20.624,-6.293 29.897,-19.015 v 0 l -40.261,-35.537 c 6.469,-5.641 16.073,-5.35 25.066,2.589 v 0 c 4.705,4.152 9.306,11.376 9.557,16.994 v 0 l 14.702,-0.822 -5.369,28.984 c -1.142,6.168 -6.527,10.48 -12.582,10.48 v 0 c -0.774,0 -1.559,-0.07 -2.348,-0.216"
                 style="fill:url(#linearGradient362);stroke:none"
                 id="path364" />
            </g>
          </g>
        </g>
      </g>
      <g
         id="g366">
        <g
           id="g368"
           clip-path="url(#clipPath372)">
          <g
             id="g374">
            <g
               id="g376">
              <path
                 d="m 174.08,363.725 c -0.71,-0.63 -1.43,-1.23 -2.15,-1.79 v 0 h 15.32 c 3.39,2.87 5.19,7.43 4.32,12.12 v 0 l -2.87,15.53 c -1.15,-9.75 -7.291,-19.39 -14.62,-25.86"
                 style="fill:url(#linearGradient384);stroke:none"
                 id="path386" />
            </g>
          </g>
        </g>
      </g>
      <g
         id="g388">
        <g
           id="g390"
           clip-path="url(#clipPath394)">
          <g
             id="g396">
            <g
               id="g398">
              <path
                 d="m 116.94,361.935 h 8.81 c -1.47,1.29 -2.9,2.72 -4.28,4.28 v 0 c -3.48,3.94 -6.04,8.19 -7.65,12.59 v 0 z"
                 style="fill:url(#linearGradient406);stroke:none"
                 id="path408" />
            </g>
          </g>
        </g>
      </g>
      <g
         id="g410">
        <g
           id="g412"
           clip-path="url(#clipPath416)">
          <g
             id="g418">
            <g
               id="g420">
              <path
                 d="m 56.46,380.135 c 0,-3.61 2.93,-6.541 6.54,-6.541 v 0 c 2.24,0 4.22,1.131 5.4,2.851 v 0 h 13.95 l 13.6,-21.89 h 112.801 c 2.029,0 3.689,1.65 3.689,3.69 v 0 c 0,2.039 -1.66,3.69 -3.689,3.69 v 0 H 100.05 l -13.6,21.9 H 68.4 c -1.18,1.71 -3.16,2.84 -5.4,2.84 v 0 c -3.61,0 -6.54,-2.92 -6.54,-6.54"
                 style="fill:url(#linearGradient426);stroke:none"
                 id="path428" />
            </g>
          </g>
        </g>
      </g>
    </g>
  </g>
</svg>
